<svg xmlns="http://www.w3.org/2000/svg" viewBox="120.6 30.1 850.8 850.8"><rect x="120.6" y="30.1" width="850.8" height="850.8" rx="161.6" fill="#143526"/><g fill="#E6C877"><path d="M 540.00,694.16 L 507.00,694.47 L 466.00,688.16 L 438.00,681.16 L 408.00,671.16 L 371.00,655.71 L 341.00,640.18 L 302.00,614.42 L 272.00,588.18 L 250.00,561.25 L 233.75,535.00 L 222.86,508.00 L 218.61,493.00 L 214.62,470.00 L 213.53,436.00 L 218.61,399.00 L 226.84,372.00 L 232.29,358.00 L 243.27,337.00 L 257.58,316.00 L 273.51,298.00 L 290.00,282.58 L 308.00,268.82 L 330.00,255.27 L 347.00,246.28 L 378.00,233.84 L 418.00,222.84 L 436.00,219.62 L 469.00,216.52 L 508.00,216.53 L 549.00,222.84 L 573.00,229.86 L 597.00,239.28 L 623.00,252.82 L 644.25,267.00 L 665.47,285.00 L 680.42,301.00 L 697.18,323.00 L 711.26,346.00 L 723.16,371.00 L 733.16,401.00 L 738.38,424.00 L 741.47,455.00 L 741.47,472.00 L 738.38,502.00 L 733.16,523.00 L 725.26,544.00 L 715.17,564.00 L 700.42,584.00 L 684.00,600.42 L 657.85,619.00 L 658.34,621.00 L 663.00,621.50 L 683.00,620.38 L 710.00,616.38 L 737.00,608.16 L 761.00,596.19 L 776.00,585.42 L 788.42,574.00 L 804.73,551.00 L 812.16,536.00 L 818.16,519.00 L 825.47,482.00 L 826.50,445.00 L 825.38,430.00 L 820.16,401.00 L 811.00,373.62 L 797.17,349.00 L 781.18,330.00 L 761.00,313.82 L 743.38,304.00 L 719.00,294.84 L 684.00,287.05 L 659.25,266.00 L 641.12,253.00 L 626.88,245.00 L 625.83,243.00 L 653.00,243.53 L 693.00,248.62 L 716.00,252.84 L 753.00,262.84 L 780.00,272.84 L 803.49,284.00 L 820.00,293.81 L 842.00,309.58 L 865.42,333.00 L 882.73,358.00 L 890.16,373.00 L 899.16,398.00 L 905.38,428.00 L 906.47,437.00 L 906.47,472.00 L 902.38,502.00 L 893.16,533.00 L 883.71,553.00 L 875.18,567.00 L 863.00,582.47 L 840.25,604.00 L 816.00,620.18 L 788.00,633.16 L 756.00,643.16 L 719.00,650.38 L 664.00,656.47 L 600.00,660.50 L 597.00,660.25 L 595.55,658.00 L 594.53,635.00 L 596.84,622.00 L 598.59,618.00 L 623.17,586.00 L 642.16,551.00 L 655.16,511.00 L 659.38,489.00 L 661.47,469.00 L 660.38,424.00 L 652.16,380.00 L 640.72,348.00 L 631.18,329.00 L 621.00,312.76 L 600.00,287.57 L 577.25,269.00 L 563.00,260.27 L 537.00,249.86 L 525.00,246.84 L 507.00,243.62 L 491.00,242.50 L 465.00,243.62 L 447.00,246.61 L 425.00,252.82 L 408.00,259.74 L 390.00,269.82 L 371.00,283.58 L 353.00,301.53 L 344.58,312.00 L 329.27,336.00 L 317.84,361.00 L 309.84,386.00 L 304.53,416.00 L 302.50,449.00 L 305.62,480.00 L 310.84,504.00 L 324.29,539.00 L 330.82,551.00 L 346.00,573.25 L 370.53,600.00 L 401.00,623.18 L 429.00,638.72 L 468.00,654.14 L 520.00,667.38 L 561.00,672.47 L 613.17,674.00 L 612.12,676.00 L 607.00,678.14 L 575.00,688.16 L 540.00,694.16 Z M 553.00,656.25 L 547.00,656.38 L 526.00,652.39 L 487.00,642.18 L 449.62,628.00 L 427.00,617.26 L 420.87,613.00 L 419.50,605.00 L 419.62,509.00 L 421.00,502.67 L 425.58,495.00 L 434.00,486.58 L 443.00,480.52 L 451.00,476.84 L 466.00,472.62 L 482.00,470.52 L 502.00,471.62 L 521.00,475.86 L 531.00,480.27 L 542.00,487.58 L 551.18,498.00 L 555.26,510.00 L 554.50,552.00 L 555.49,568.00 L 554.50,579.00 L 555.49,599.00 L 554.49,653.00 L 553.00,656.25 Z M 367.00,663.21 L 355.00,662.16 L 314.00,649.16 L 248.00,618.84 L 228.53,614.00 L 226.50,604.00 L 229.29,588.00 L 229.00,579.55 L 232.00,578.51 L 247.08,579.00 L 277.00,606.42 L 296.00,621.18 L 328.00,642.18 L 367.00,663.21 Z"/><path d="M 514.00,453.06 L 492.00,453.49 L 484.00,452.51 L 468.00,453.49 L 458.00,452.51 L 446.00,453.50 L 440.00,452.51 L 385.00,452.50 L 356.00,453.50 L 350.00,452.51 L 322.00,452.49 L 320.00,452.17 L 317.83,450.00 L 317.51,445.00 L 318.54,442.00 L 339.50,421.00 L 362.00,400.53 L 388.67,378.00 L 431.38,346.00 L 431.20,344.00 L 423.00,338.77 L 387.71,321.00 L 386.50,317.00 L 387.71,313.00 L 417.00,297.78 L 441.00,289.79 L 466.00,284.56 L 494.00,283.51 L 516.00,286.56 L 540.00,293.78 L 567.00,306.73 L 577.45,313.00 L 578.44,318.00 L 576.00,321.46 L 542.00,338.77 L 534.68,343.00 L 532.92,346.00 L 568.33,372.00 L 597.00,395.53 L 633.49,429.00 L 645.47,441.00 L 647.44,445.00 L 647.21,449.00 L 644.00,452.44 L 514.00,453.06 Z M 484.27,315.00 L 515.00,301.21 L 517.03,299.00 L 515.00,297.56 L 494.00,294.50 L 472.00,294.56 L 452.00,297.56 L 448.36,299.00 L 450.00,301.26 L 481.00,315.17 L 484.27,315.00 Z M 446.26,337.00 L 467.00,324.70 L 468.34,323.00 L 468.00,321.78 L 430.00,304.62 L 421.00,307.82 L 406.23,316.00 L 407.00,317.64 L 415.00,322.18 L 442.00,336.27 L 446.26,337.00 Z M 522.26,337.00 L 558.00,317.67 L 559.03,316.00 L 547.00,308.73 L 536.00,304.86 L 513.00,313.78 L 496.93,322.00 L 498.00,324.21 L 511.00,332.23 L 520.00,337.20 L 522.26,337.00 Z M 484.44,361.00 L 506.32,347.00 L 507.38,344.00 L 502.00,339.77 L 482.00,329.56 L 468.00,336.77 L 456.93,344.00 L 458.00,346.21 L 479.00,360.23 L 482.00,361.44 L 484.44,361.00 Z M 393.44,439.00 L 431.00,403.53 L 469.29,372.00 L 470.37,370.00 L 469.29,368.00 L 448.00,353.77 L 444.00,352.84 L 421.67,368.00 L 383.00,398.53 L 358.00,420.53 L 340.97,438.00 L 343.00,439.48 L 393.44,439.00 Z M 623.14,439.00 L 623.38,437.00 L 612.49,426.00 L 578.00,395.53 L 544.33,369.00 L 521.00,352.84 L 519.00,352.80 L 510.00,357.77 L 494.63,369.00 L 495.00,371.41 L 534.00,403.53 L 571.00,438.23 L 575.00,439.49 L 623.14,439.00 Z M 551.71,439.00 L 550.50,436.00 L 526.00,412.53 L 491.00,383.53 L 483.00,378.20 L 475.67,382.00 L 460.00,394.53 L 424.00,426.53 L 412.97,438.00 L 414.00,439.37 L 416.00,439.50 L 551.71,439.00 Z M 208.00,644.21 L 202.00,644.44 L 198.00,643.18 L 193.79,638.00 L 193.44,600.00 L 192.24,598.00 L 187.00,595.29 L 185.51,591.00 L 185.83,584.00 L 191.00,579.79 L 201.00,578.51 L 217.00,579.56 L 221.00,581.53 L 224.44,586.00 L 223.70,594.00 L 216.76,598.00 L 215.56,600.00 L 215.17,640.00 L 213.00,642.23 L 208.00,644.21 Z"/></g></svg>