<?xml version="1.0" encoding="UTF-8"?>
<svg xmlns="http://www.w3.org/2000/svg"
     width="1080" height="1080" viewBox="0 0 1080 1080">
  <title>Qazaq Dream — transparent vector logo</title>
  <g id="symbol">
    <path d="M 540.00,694.16 L 507.00,694.47 L 466.00,688.16 L 438.00,681.16 L 408.00,671.16 L 371.00,655.71 L 341.00,640.18 L 302.00,614.42 L 272.00,588.18 L 250.00,561.25 L 233.75,535.00 L 222.86,508.00 L 218.61,493.00 L 214.62,470.00 L 213.53,436.00 L 218.61,399.00 L 226.84,372.00 L 232.29,358.00 L 243.27,337.00 L 257.58,316.00 L 273.51,298.00 L 290.00,282.58 L 308.00,268.82 L 330.00,255.27 L 347.00,246.28 L 378.00,233.84 L 418.00,222.84 L 436.00,219.62 L 469.00,216.52 L 508.00,216.53 L 549.00,222.84 L 573.00,229.86 L 597.00,239.28 L 623.00,252.82 L 644.25,267.00 L 665.47,285.00 L 680.42,301.00 L 697.18,323.00 L 711.26,346.00 L 723.16,371.00 L 733.16,401.00 L 738.38,424.00 L 741.47,455.00 L 741.47,472.00 L 738.38,502.00 L 733.16,523.00 L 725.26,544.00 L 715.17,564.00 L 700.42,584.00 L 684.00,600.42 L 657.85,619.00 L 658.34,621.00 L 663.00,621.50 L 683.00,620.38 L 710.00,616.38 L 737.00,608.16 L 761.00,596.19 L 776.00,585.42 L 788.42,574.00 L 804.73,551.00 L 812.16,536.00 L 818.16,519.00 L 825.47,482.00 L 826.50,445.00 L 825.38,430.00 L 820.16,401.00 L 811.00,373.62 L 797.17,349.00 L 781.18,330.00 L 761.00,313.82 L 743.38,304.00 L 719.00,294.84 L 684.00,287.05 L 659.25,266.00 L 641.12,253.00 L 626.88,245.00 L 625.83,243.00 L 653.00,243.53 L 693.00,248.62 L 716.00,252.84 L 753.00,262.84 L 780.00,272.84 L 803.49,284.00 L 820.00,293.81 L 842.00,309.58 L 865.42,333.00 L 882.73,358.00 L 890.16,373.00 L 899.16,398.00 L 905.38,428.00 L 906.47,437.00 L 906.47,472.00 L 902.38,502.00 L 893.16,533.00 L 883.71,553.00 L 875.18,567.00 L 863.00,582.47 L 840.25,604.00 L 816.00,620.18 L 788.00,633.16 L 756.00,643.16 L 719.00,650.38 L 664.00,656.47 L 600.00,660.50 L 597.00,660.25 L 595.55,658.00 L 594.53,635.00 L 596.84,622.00 L 598.59,618.00 L 623.17,586.00 L 642.16,551.00 L 655.16,511.00 L 659.38,489.00 L 661.47,469.00 L 660.38,424.00 L 652.16,380.00 L 640.72,348.00 L 631.18,329.00 L 621.00,312.76 L 600.00,287.57 L 577.25,269.00 L 563.00,260.27 L 537.00,249.86 L 525.00,246.84 L 507.00,243.62 L 491.00,242.50 L 465.00,243.62 L 447.00,246.61 L 425.00,252.82 L 408.00,259.74 L 390.00,269.82 L 371.00,283.58 L 353.00,301.53 L 344.58,312.00 L 329.27,336.00 L 317.84,361.00 L 309.84,386.00 L 304.53,416.00 L 302.50,449.00 L 305.62,480.00 L 310.84,504.00 L 324.29,539.00 L 330.82,551.00 L 346.00,573.25 L 370.53,600.00 L 401.00,623.18 L 429.00,638.72 L 468.00,654.14 L 520.00,667.38 L 561.00,672.47 L 613.17,674.00 L 612.12,676.00 L 607.00,678.14 L 575.00,688.16 L 540.00,694.16 Z M 553.00,656.25 L 547.00,656.38 L 526.00,652.39 L 487.00,642.18 L 449.62,628.00 L 427.00,617.26 L 420.87,613.00 L 419.50,605.00 L 419.62,509.00 L 421.00,502.67 L 425.58,495.00 L 434.00,486.58 L 443.00,480.52 L 451.00,476.84 L 466.00,472.62 L 482.00,470.52 L 502.00,471.62 L 521.00,475.86 L 531.00,480.27 L 542.00,487.58 L 551.18,498.00 L 555.26,510.00 L 554.50,552.00 L 555.49,568.00 L 554.50,579.00 L 555.49,599.00 L 554.49,653.00 L 553.00,656.25 Z M 367.00,663.21 L 355.00,662.16 L 314.00,649.16 L 248.00,618.84 L 228.53,614.00 L 226.50,604.00 L 229.29,588.00 L 229.00,579.55 L 232.00,578.51 L 247.08,579.00 L 277.00,606.42 L 296.00,621.18 L 328.00,642.18 L 367.00,663.21 Z" fill="#FFFFFF" fill-rule="evenodd"/>
    <path d="M 514.00,453.06 L 492.00,453.49 L 484.00,452.51 L 468.00,453.49 L 458.00,452.51 L 446.00,453.50 L 440.00,452.51 L 385.00,452.50 L 356.00,453.50 L 350.00,452.51 L 322.00,452.49 L 320.00,452.17 L 317.83,450.00 L 317.51,445.00 L 318.54,442.00 L 339.50,421.00 L 362.00,400.53 L 388.67,378.00 L 431.38,346.00 L 431.20,344.00 L 423.00,338.77 L 387.71,321.00 L 386.50,317.00 L 387.71,313.00 L 417.00,297.78 L 441.00,289.79 L 466.00,284.56 L 494.00,283.51 L 516.00,286.56 L 540.00,293.78 L 567.00,306.73 L 577.45,313.00 L 578.44,318.00 L 576.00,321.46 L 542.00,338.77 L 534.68,343.00 L 532.92,346.00 L 568.33,372.00 L 597.00,395.53 L 633.49,429.00 L 645.47,441.00 L 647.44,445.00 L 647.21,449.00 L 644.00,452.44 L 514.00,453.06 Z M 484.27,315.00 L 515.00,301.21 L 517.03,299.00 L 515.00,297.56 L 494.00,294.50 L 472.00,294.56 L 452.00,297.56 L 448.36,299.00 L 450.00,301.26 L 481.00,315.17 L 484.27,315.00 Z M 446.26,337.00 L 467.00,324.70 L 468.34,323.00 L 468.00,321.78 L 430.00,304.62 L 421.00,307.82 L 406.23,316.00 L 407.00,317.64 L 415.00,322.18 L 442.00,336.27 L 446.26,337.00 Z M 522.26,337.00 L 558.00,317.67 L 559.03,316.00 L 547.00,308.73 L 536.00,304.86 L 513.00,313.78 L 496.93,322.00 L 498.00,324.21 L 511.00,332.23 L 520.00,337.20 L 522.26,337.00 Z M 484.44,361.00 L 506.32,347.00 L 507.38,344.00 L 502.00,339.77 L 482.00,329.56 L 468.00,336.77 L 456.93,344.00 L 458.00,346.21 L 479.00,360.23 L 482.00,361.44 L 484.44,361.00 Z M 393.44,439.00 L 431.00,403.53 L 469.29,372.00 L 470.37,370.00 L 469.29,368.00 L 448.00,353.77 L 444.00,352.84 L 421.67,368.00 L 383.00,398.53 L 358.00,420.53 L 340.97,438.00 L 343.00,439.48 L 393.44,439.00 Z M 623.14,439.00 L 623.38,437.00 L 612.49,426.00 L 578.00,395.53 L 544.33,369.00 L 521.00,352.84 L 519.00,352.80 L 510.00,357.77 L 494.63,369.00 L 495.00,371.41 L 534.00,403.53 L 571.00,438.23 L 575.00,439.49 L 623.14,439.00 Z M 551.71,439.00 L 550.50,436.00 L 526.00,412.53 L 491.00,383.53 L 483.00,378.20 L 475.67,382.00 L 460.00,394.53 L 424.00,426.53 L 412.97,438.00 L 414.00,439.37 L 416.00,439.50 L 551.71,439.00 Z M 208.00,644.21 L 202.00,644.44 L 198.00,643.18 L 193.79,638.00 L 193.44,600.00 L 192.24,598.00 L 187.00,595.29 L 185.51,591.00 L 185.83,584.00 L 191.00,579.79 L 201.00,578.51 L 217.00,579.56 L 221.00,581.53 L 224.44,586.00 L 223.70,594.00 L 216.76,598.00 L 215.56,600.00 L 215.17,640.00 L 213.00,642.23 L 208.00,644.21 Z" fill="#FFFFFF" fill-rule="evenodd"/>
  </g>
  <g id="wordmark">
    <path d="M 215.00,876.32 L 203.00,876.32 L 177.00,870.32 L 173.00,868.68 L 169.00,868.32 L 153.00,863.68 L 140.00,861.51 L 131.00,861.51 L 119.00,864.32 L 116.09,864.00 L 118.00,861.50 L 123.00,857.67 L 137.43,848.00 L 139.30,846.00 L 139.23,845.00 L 129.00,844.49 L 122.00,843.32 L 109.00,839.32 L 95.00,830.25 L 88.67,823.00 L 82.68,812.00 L 80.68,806.00 L 79.51,799.00 L 79.51,785.00 L 81.68,775.00 L 85.67,766.00 L 90.67,758.00 L 99.00,749.50 L 111.00,741.68 L 125.00,736.68 L 132.00,735.51 L 143.00,735.49 L 146.00,734.68 L 158.00,735.68 L 176.00,741.68 L 184.43,747.00 L 192.50,755.00 L 198.32,765.00 L 201.32,775.00 L 202.49,782.00 L 202.49,790.00 L 201.51,793.00 L 201.32,798.00 L 197.32,809.00 L 192.00,818.43 L 186.25,825.00 L 180.43,830.00 L 168.00,838.32 L 151.00,844.67 L 147.94,848.00 L 149.00,849.31 L 154.00,849.68 L 173.00,854.32 L 177.00,854.68 L 184.00,857.32 L 188.00,857.68 L 195.00,860.32 L 212.00,864.49 L 218.00,864.51 L 221.00,865.49 L 224.00,865.49 L 237.79,863.00 L 236.50,866.00 L 230.00,871.33 L 226.00,872.68 L 224.00,874.32 L 215.00,876.32 Z M 147.50,839.00 L 156.00,837.32 L 165.00,832.33 L 172.00,825.43 L 178.32,816.00 L 181.32,807.00 L 182.49,801.00 L 182.49,783.00 L 179.32,770.00 L 177.32,765.00 L 170.50,754.00 L 162.00,746.67 L 155.00,742.68 L 140.00,739.52 L 137.00,740.49 L 131.00,740.68 L 123.00,743.68 L 115.57,748.00 L 112.25,752.00 L 110.00,753.57 L 105.67,760.00 L 100.68,772.00 L 98.69,789.00 L 99.49,791.00 L 99.51,799.00 L 100.68,805.00 L 104.67,815.00 L 110.50,824.00 L 118.57,832.00 L 128.00,837.32 L 137.00,839.49 L 147.50,839.00 Z M 261.00,842.07 L 256.00,841.32 L 254.00,840.33 L 249.00,833.69 L 242.00,836.67 L 238.00,839.32 L 226.00,842.49 L 218.00,840.32 L 213.00,836.43 L 210.68,832.00 L 209.91,826.00 L 210.68,821.00 L 212.50,818.00 L 217.00,813.67 L 221.00,811.68 L 248.00,804.25 L 249.49,799.00 L 249.49,794.00 L 248.32,789.00 L 246.00,785.50 L 242.00,782.68 L 238.00,781.51 L 234.00,781.50 L 229.00,782.68 L 225.67,786.00 L 223.00,791.25 L 219.00,792.49 L 215.00,792.32 L 213.68,791.00 L 213.68,788.00 L 215.57,786.00 L 219.00,783.68 L 221.00,783.32 L 223.00,781.67 L 234.00,776.68 L 243.00,774.51 L 248.00,774.51 L 253.00,775.68 L 257.00,777.67 L 261.00,781.57 L 263.32,786.00 L 263.51,793.00 L 264.49,796.00 L 263.91,801.00 L 264.31,805.00 L 263.51,807.00 L 263.51,811.00 L 264.49,814.00 L 264.31,819.00 L 263.69,820.00 L 264.49,825.00 L 263.51,828.00 L 263.68,830.00 L 265.00,832.43 L 268.00,835.32 L 273.00,835.33 L 276.00,833.70 L 277.22,834.00 L 277.30,835.00 L 269.00,840.32 L 261.00,842.07 Z M 370.00,842.32 L 365.00,842.49 L 361.00,841.32 L 357.00,839.33 L 353.00,835.43 L 350.52,827.00 L 352.68,819.00 L 358.00,813.67 L 364.00,810.68 L 371.00,809.32 L 379.00,806.68 L 387.00,805.32 L 389.00,804.25 L 390.07,795.00 L 389.32,790.00 L 387.33,786.00 L 385.43,784.00 L 379.00,781.51 L 373.00,781.68 L 369.00,783.67 L 366.00,786.57 L 363.43,791.00 L 360.00,792.32 L 355.57,792.00 L 354.68,791.00 L 354.68,788.00 L 360.00,783.67 L 372.00,777.68 L 378.00,775.68 L 383.00,774.51 L 388.00,774.51 L 396.00,776.68 L 398.43,778.00 L 401.33,781.00 L 403.32,784.00 L 404.49,788.00 L 404.68,830.00 L 407.00,833.50 L 410.00,835.32 L 417.00,834.22 L 417.22,835.00 L 415.00,837.33 L 410.00,840.32 L 406.00,841.49 L 399.00,841.49 L 393.57,839.00 L 391.00,834.57 L 389.00,833.52 L 379.00,839.32 L 373.00,840.68 L 370.00,842.32 Z M 476.00,880.32 L 468.09,880.00 L 473.32,874.00 L 474.49,868.00 L 474.23,833.00 L 473.00,832.69 L 461.00,839.32 L 455.00,841.32 L 450.00,842.49 L 444.00,842.32 L 435.00,838.33 L 429.50,833.00 L 425.68,827.00 L 423.68,821.00 L 422.51,815.00 L 422.51,807.00 L 423.68,801.00 L 426.67,794.00 L 431.00,787.57 L 434.57,784.00 L 442.00,778.67 L 451.00,775.68 L 456.00,774.69 L 467.00,774.51 L 485.00,777.49 L 497.90,778.00 L 497.00,779.30 L 492.00,781.50 L 489.51,786.00 L 489.49,848.00 L 488.93,850.00 L 489.49,852.00 L 489.68,868.00 L 492.00,871.32 L 498.59,872.00 L 497.00,873.30 L 476.00,880.32 Z M 334.00,841.32 L 318.00,841.49 L 314.00,840.51 L 311.00,841.49 L 306.00,841.49 L 304.00,840.69 L 301.00,841.49 L 293.00,840.93 L 291.00,841.48 L 288.00,840.51 L 281.76,840.00 L 281.68,838.00 L 282.67,836.00 L 292.33,824.00 L 298.75,814.00 L 300.25,813.00 L 301.67,810.00 L 320.06,785.00 L 319.00,783.69 L 314.00,783.49 L 311.00,782.51 L 308.00,783.07 L 302.00,782.51 L 296.00,783.68 L 292.00,785.50 L 288.68,789.00 L 287.00,793.43 L 285.00,794.23 L 284.51,786.00 L 285.49,783.00 L 285.68,778.00 L 287.00,775.75 L 291.00,775.51 L 296.00,776.49 L 341.24,777.00 L 341.32,779.00 L 340.33,781.00 L 322.67,804.00 L 303.52,832.00 L 304.00,833.25 L 308.00,834.32 L 313.00,833.51 L 317.00,834.07 L 329.00,833.32 L 335.00,830.50 L 338.32,826.00 L 339.75,822.00 L 342.00,821.77 L 341.49,832.00 L 340.32,837.00 L 337.00,840.32 L 334.00,841.32 Z M 462.50,832.00 L 467.00,831.32 L 472.00,828.33 L 474.32,826.00 L 474.49,788.00 L 471.00,782.75 L 467.00,780.68 L 457.00,779.51 L 449.00,781.68 L 443.67,786.00 L 438.68,796.00 L 437.51,803.00 L 437.51,808.00 L 439.68,817.00 L 441.68,822.00 L 446.00,827.50 L 452.00,831.32 L 457.00,832.49 L 462.50,832.00 Z M 239.50,833.00 L 245.00,831.33 L 249.32,827.00 L 249.00,808.76 L 245.00,808.68 L 235.00,811.68 L 230.57,814.00 L 226.68,819.00 L 225.69,824.00 L 228.75,831.00 L 233.00,833.32 L 239.50,833.00 Z M 382.50,833.00 L 389.00,829.25 L 390.32,827.00 L 390.49,818.00 L 389.68,814.00 L 390.48,811.00 L 389.00,808.68 L 386.00,808.68 L 382.00,810.32 L 379.00,810.68 L 370.00,814.75 L 366.68,821.00 L 366.51,824.00 L 367.68,828.00 L 370.57,832.00 L 375.00,833.49 L 382.50,833.00 Z" fill="#FFFFFF" fill-rule="evenodd"/>
    <path d="M 605.00,841.32 L 547.00,841.50 L 544.76,841.00 L 545.00,838.76 L 552.00,837.32 L 554.32,835.00 L 555.49,831.00 L 555.51,824.00 L 556.50,820.00 L 556.49,759.00 L 555.51,756.00 L 555.49,746.00 L 554.33,743.00 L 553.00,741.67 L 551.00,740.67 L 546.00,740.30 L 545.10,739.00 L 612.00,738.51 L 615.00,739.49 L 620.00,739.68 L 632.00,743.68 L 642.00,749.67 L 648.00,755.57 L 654.33,765.00 L 657.32,773.00 L 658.49,779.00 L 658.49,794.00 L 657.32,801.00 L 654.32,810.00 L 651.33,816.00 L 643.00,826.50 L 630.00,835.32 L 618.00,839.32 L 612.00,840.49 L 607.00,840.51 L 605.00,841.32 Z M 606.50,835.00 L 616.00,832.32 L 624.00,828.33 L 631.00,821.43 L 634.33,816.00 L 638.32,807.00 L 640.49,794.00 L 640.49,787.00 L 638.32,775.00 L 631.33,761.00 L 622.00,751.67 L 612.00,746.68 L 600.00,743.68 L 577.00,743.68 L 574.75,745.00 L 573.51,748.00 L 573.68,829.00 L 575.57,833.00 L 582.00,835.32 L 606.50,835.00 Z M 704.00,841.30 L 671.00,841.49 L 668.94,840.00 L 670.00,838.69 L 674.00,838.32 L 676.50,836.00 L 678.49,830.00 L 678.32,790.00 L 677.25,786.00 L 674.00,783.68 L 670.00,783.24 L 670.00,780.76 L 680.00,778.32 L 689.00,774.68 L 692.00,774.76 L 692.68,786.00 L 693.76,788.00 L 695.00,788.30 L 699.50,782.00 L 707.00,775.68 L 711.00,774.51 L 716.00,774.51 L 719.25,776.00 L 720.49,782.00 L 719.32,789.00 L 717.42,792.00 L 716.00,792.31 L 713.00,788.75 L 711.00,787.67 L 705.00,785.69 L 698.57,789.00 L 695.00,792.57 L 693.68,795.00 L 693.68,834.00 L 696.00,837.33 L 698.00,838.32 L 703.00,838.68 L 704.93,840.00 L 704.00,841.30 Z M 765.00,842.32 L 753.00,842.32 L 749.00,841.32 L 741.00,837.33 L 735.50,832.00 L 732.67,828.00 L 729.68,821.00 L 728.51,815.00 L 728.51,804.00 L 729.68,799.00 L 731.68,794.00 L 736.00,787.57 L 741.57,782.00 L 745.00,779.67 L 751.00,776.68 L 759.00,774.51 L 769.00,774.68 L 775.00,776.68 L 780.00,779.67 L 785.33,786.00 L 789.49,797.00 L 789.25,801.00 L 787.00,802.32 L 779.00,802.51 L 776.00,803.49 L 752.00,803.51 L 744.75,805.00 L 743.93,807.00 L 744.68,813.00 L 747.67,821.00 L 754.57,828.00 L 759.00,830.32 L 763.00,831.49 L 774.00,831.49 L 781.00,829.32 L 787.00,825.68 L 790.23,826.00 L 790.00,827.41 L 785.00,832.50 L 778.00,837.33 L 772.00,840.32 L 765.00,842.32 Z M 852.00,842.32 L 850.00,842.32 L 844.00,840.33 L 839.00,833.93 L 836.00,834.68 L 824.00,841.32 L 820.00,842.49 L 814.00,842.49 L 810.00,841.32 L 807.57,840.00 L 803.00,835.43 L 800.68,831.00 L 800.51,823.00 L 801.68,819.00 L 804.00,815.75 L 807.00,813.67 L 816.00,809.68 L 836.00,805.32 L 838.43,804.00 L 839.49,802.00 L 839.49,793.00 L 838.32,788.00 L 833.00,782.68 L 828.00,781.50 L 825.00,781.51 L 821.00,782.68 L 815.50,787.00 L 813.00,791.25 L 810.00,792.49 L 805.00,792.24 L 804.68,788.00 L 807.57,785.00 L 815.00,780.68 L 822.00,777.68 L 834.00,774.51 L 838.00,774.51 L 843.00,775.68 L 846.00,776.68 L 850.00,779.57 L 852.32,783.00 L 854.49,791.00 L 854.68,832.00 L 858.00,835.32 L 862.00,835.32 L 866.00,833.52 L 867.23,834.00 L 867.30,835.00 L 865.00,837.33 L 857.00,841.32 L 852.00,842.32 Z M 998.00,841.31 L 965.77,841.00 L 965.70,840.00 L 967.00,838.68 L 970.00,838.32 L 972.50,836.00 L 974.32,832.00 L 974.49,797.00 L 973.32,791.00 L 971.50,788.00 L 967.00,784.68 L 963.00,784.50 L 953.00,786.68 L 947.00,789.67 L 944.51,793.00 L 944.68,834.00 L 947.00,837.33 L 953.41,839.00 L 954.06,840.00 L 953.41,841.00 L 923.00,841.32 L 921.70,840.00 L 921.77,839.00 L 927.00,837.25 L 929.49,832.00 L 929.49,793.00 L 927.33,788.00 L 925.00,785.67 L 922.00,784.51 L 917.00,784.50 L 914.00,784.68 L 904.00,788.67 L 900.67,792.00 L 899.51,795.00 L 899.51,805.00 L 900.50,809.00 L 900.49,816.00 L 899.51,819.00 L 899.68,832.00 L 900.68,835.00 L 902.00,836.50 L 905.00,838.32 L 909.00,838.76 L 909.24,841.00 L 877.00,841.32 L 875.70,840.00 L 876.00,838.77 L 880.00,838.32 L 882.00,837.33 L 884.49,834.00 L 884.49,789.00 L 883.00,785.75 L 878.00,784.32 L 876.31,783.00 L 878.00,781.68 L 892.00,777.32 L 898.00,774.52 L 899.24,775.00 L 900.09,778.00 L 899.68,783.00 L 900.75,785.00 L 902.00,785.48 L 918.00,776.68 L 925.00,774.68 L 930.00,774.51 L 938.00,777.67 L 941.33,781.00 L 943.50,785.00 L 946.00,786.31 L 953.00,781.67 L 963.00,776.68 L 969.00,774.68 L 975.00,774.51 L 979.00,775.68 L 983.00,777.67 L 985.33,780.00 L 988.32,786.00 L 989.32,790.00 L 989.68,835.00 L 994.00,838.32 L 998.41,839.00 L 999.06,840.00 L 998.00,841.31 Z M 772.43,798.00 L 773.49,796.00 L 773.49,791.00 L 770.33,784.00 L 768.00,781.67 L 763.00,779.51 L 756.00,779.68 L 751.00,782.50 L 746.68,788.00 L 744.52,796.00 L 745.00,797.43 L 747.00,798.49 L 772.43,798.00 Z M 829.50,833.00 L 833.00,832.32 L 837.00,830.33 L 839.32,828.00 L 839.00,808.76 L 835.00,808.68 L 822.00,813.67 L 818.00,817.57 L 816.68,820.00 L 816.68,827.00 L 818.50,830.00 L 823.00,833.32 L 829.50,833.00 Z" fill="#FFFFFF" fill-rule="evenodd"/>
  </g>
</svg>
